<svg width="36" height="28" viewBox="0 0 36 28" fill="none" xmlns="http://www.w3.org/2000/svg">
<g clip-path="url(#clip0_5054_21714)">
<path d="M17.7676 2.7645C9.6469 2.7645 3.22267 7.60981 2.86438 13.4837C2.86438 13.4837 2.86108 13.5905 2.85448 13.7305V13.7339L5.36716 13.1172L5.18966 14.074L6.78582 13.717V10.2296L6.00325 10.4284L5.90625 10.4527V9.77041L5.9663 9.75283L10.8782 8.5011C11.1929 8.41927 11.5274 8.37802 11.8448 8.37802C13.0095 8.37802 13.7122 8.91293 13.7722 9.84886C13.7788 9.91784 13.7788 9.98614 13.7755 10.0544L16.8873 9.29366L16.9883 9.26932V18.1478H17.8481V18.6894H14.2143V18.1478H15.0002V10.4183L13.6455 10.7374C13.3809 11.4468 12.7284 12.0845 11.7082 12.637C11.8488 12.6235 11.9854 12.6161 12.1226 12.6161C13.6053 12.6161 14.6393 13.5148 14.6393 14.7936C14.6393 16.5052 12.9897 18.2884 11.0992 18.6178C10.5337 18.7097 10.025 18.7097 9.5367 18.7097H6.01314V18.1376L6.78582 18.1579L6.79572 14.7151L4.29953 15.2088L4.47373 14.1701L2.86108 14.4372C3.16526 20.3456 9.61654 25.2287 17.7676 25.2287C25.3934 25.2287 31.5233 20.9596 32.5368 15.5794L30.6662 16.351L30.5692 16.3915L30.6332 15.8675L30.6932 15.3873L29.5491 15.6923L26.2762 16.5735V17.4174C26.2762 18.0206 26.5679 18.2776 27.2601 18.2776C28.1601 18.2776 28.8331 17.8901 29.1842 17.1807L29.8031 16.9231C29.4719 18.1302 28.5382 18.7956 27.1697 18.7956C24.9612 18.7956 23.9747 17.3586 23.9747 15.929C23.9747 14.0186 25.6105 12.9934 27.1433 12.9934C28.3277 12.9934 29.3551 13.7102 29.6758 14.7219L31.4798 14.2039L31.3623 15.202L32.6437 14.8382L32.647 14.8213C32.6741 14.5467 32.6873 14.2729 32.6873 13.9983C32.6873 7.90127 26.1225 2.7645 17.7676 2.7645ZM24.4656 18.026V18.6894L21.6105 18.8267V17.9922C21.2252 18.5724 20.5482 18.8916 19.6871 18.8916C18.8827 18.8916 18.4202 18.7097 18.182 18.3013C17.9675 17.9266 17.9675 17.4012 17.9675 16.7351V14.1937L17.4146 14.3344V13.5959L20.0216 12.9366V13.0975L20.0289 17.1334C20.0256 17.5418 20.0256 17.8617 20.1562 18.0024C20.2196 18.0605 20.31 18.0916 20.4373 18.0916C21.0773 18.0916 21.6105 17.109 21.6105 16.7418V14.2005L21.148 14.3243V13.5892L23.6712 12.9434V18.0673L24.4656 18.026ZM17.7676 0C7.97024 0 0 6.27895 0 13.9983C0 21.7177 7.97024 28 17.7676 28C27.5649 28 35.5385 21.7177 35.5385 13.9983C35.5385 6.27895 27.5649 0 17.7676 0ZM17.7676 25.9834C9.13816 25.9834 2.11809 20.6066 2.11809 13.9983C2.11809 7.39003 9.13816 2.01319 17.7676 2.01319C26.397 2.01319 33.4204 7.39003 33.4204 13.9983C33.4204 20.6066 26.397 25.9834 17.7676 25.9834ZM26.2729 14.1525V16.0007L27.8355 15.603V14.0943C27.8355 13.7001 27.3808 13.6108 26.9961 13.6108C26.6649 13.6108 26.2729 13.7102 26.2729 14.1525ZM9.21536 18.0382C9.35921 18.024 9.50305 17.997 9.6469 17.9591C11.059 17.5986 12.2031 16.3063 12.2031 15.0817C12.2031 14.0977 11.4773 13.4391 10.3998 13.4391C10.1688 13.4391 9.92799 13.4735 9.68715 13.5351C9.52944 13.5797 9.3691 13.6277 9.21536 13.6967V18.0382ZM11.3803 10.6962C11.3803 9.94489 10.7607 9.43432 9.84749 9.43432C9.6436 9.43432 9.43245 9.45799 9.21536 9.50938L9.21866 13.0313C10.4163 12.6817 11.3803 11.6524 11.3803 10.6962Z" fill="#1C3F94"/>
</g>
<defs>
<clipPath id="clip0_5054_21714">
<rect width="35.5385" height="28" fill="white"/>
</clipPath>
</defs>
</svg>
