<svg width="77" height="14" viewBox="0 0 77 14" fill="none" xmlns="http://www.w3.org/2000/svg">
<g clip-path="url(#clip0_6758_65799)">
<path d="M68.6803 0V2.77689C67.6357 2.77689 66.6338 3.18919 65.8951 3.92309C65.1564 4.65699 64.7415 5.65237 64.7415 6.69026C64.7415 7.72816 65.1564 8.72354 65.8951 9.45744C66.6338 10.1913 67.6357 10.6036 68.6803 10.6036V13.3805C64.9424 13.3805 61.8992 10.381 61.8992 6.69026C61.8992 2.99957 64.9424 0 68.6803 0Z" fill="black"/>
<path d="M68.7767 5.48804V8.24984H72.036V11.4881H74.8158V5.48804H68.7767Z" fill="black"/>
<path d="M11.3701 9.30945C11.0543 9.30945 10.7455 9.21645 10.4829 9.04221C10.2203 8.86796 10.0155 8.62029 9.89451 8.33048C9.77349 8.04067 9.74165 7.72172 9.803 7.41394C9.86435 7.10615 10.0161 6.82334 10.2392 6.60123C10.4623 6.37912 10.7466 6.22768 11.0562 6.16603C11.3659 6.10439 11.687 6.13532 11.9789 6.2549C12.2709 6.37449 12.5206 6.57737 12.6966 6.83791C12.8726 7.09845 12.9669 7.40497 12.9676 7.71873C12.9697 7.92775 12.9299 8.1351 12.8504 8.32863C12.7708 8.52216 12.6532 8.69798 12.5045 8.84579C12.3557 8.9936 12.1787 9.11043 11.9839 9.18944C11.7892 9.26844 11.5805 9.30804 11.3701 9.3059V9.30945ZM14.307 6.06768V4.97733H12.363C12.0438 4.86626 11.7083 4.80841 11.3701 4.8061C9.69577 4.8061 8.37865 6.07123 8.37865 7.72228C8.37865 9.37333 9.69577 10.6393 11.3701 10.6393C13.0444 10.6393 14.3606 9.37422 14.3606 7.71873C14.3606 7.16158 14.2097 6.61418 13.907 6.21051L14.307 6.06768ZM4.91128 9.30945C4.59556 9.3091 4.28701 9.2158 4.02462 9.04135C3.76222 8.86689 3.55774 8.61909 3.437 8.32925C3.31626 8.03941 3.28467 7.72052 3.34622 7.41285C3.40777 7.10518 3.55971 6.82254 3.78284 6.6006C4.00596 6.37867 4.29028 6.2274 4.59988 6.1659C4.90949 6.10441 5.23049 6.13544 5.52235 6.25507C5.81421 6.37471 6.06385 6.57759 6.23974 6.83809C6.41562 7.0986 6.50987 7.40504 6.51058 7.71873C6.51321 7.9282 6.47365 8.13608 6.39424 8.33014C6.31482 8.5242 6.19714 8.70052 6.04813 8.84874C5.89912 8.99695 5.72178 9.11406 5.52655 9.19318C5.33131 9.2723 5.12212 9.31183 4.91128 9.30945V9.30945ZM4.91128 4.8061C3.23788 4.8061 1.91987 6.07123 1.91987 7.72228C1.91987 9.37333 3.23966 10.6393 4.91128 10.6393C6.58291 10.6393 7.90359 9.37422 7.90359 7.71873C7.90359 6.06324 6.58648 4.8061 4.91128 4.8061V4.8061ZM0 10.4779H1.3823V2.65113H0V10.4779ZM14.9124 10.4779H16.2947V4.97733H14.9124V10.4779ZM11.371 12.4297C11.1618 12.4322 10.9543 12.3931 10.7606 12.3148C10.5669 12.2364 10.3909 12.1204 10.243 11.9735C10.0951 11.8267 9.97822 11.6519 9.89927 11.4595C9.82032 11.2671 9.78088 11.0609 9.78328 10.8532H8.37865C8.37865 12.5051 9.69577 13.7702 11.3701 13.7702C13.0444 13.7702 14.3606 12.5051 14.3606 10.8532H12.9569C12.9593 11.0608 12.9198 11.2669 12.8409 11.4593C12.7621 11.6516 12.6453 11.8264 12.4974 11.9732C12.3496 12.1201 12.1737 12.2361 11.9801 12.3145C11.7865 12.3929 11.5791 12.4321 11.3701 12.4297H11.371ZM21.3793 7.15448C21.5623 6.42521 22.124 6.01799 22.8473 6.01799C23.5706 6.01799 24.1099 6.41457 24.2832 7.15448H21.3793ZM22.8794 4.8061C21.2167 4.8061 19.9541 6.07123 19.9541 7.7551C19.9541 9.4168 21.1087 10.6393 22.9009 10.6393C23.8938 10.6393 24.7761 10.2747 25.4271 9.58803L24.4993 8.67689C24.0456 9.1054 23.5599 9.4168 22.9339 9.4168C22.1776 9.4168 21.6061 8.9874 21.4159 8.26967H25.7173V7.93698C25.7173 6.06058 24.5511 4.8061 22.8768 4.8061H22.8794ZM35.1103 4.8061C34.7984 4.79949 34.4886 4.85789 34.2009 4.97754C33.9131 5.09718 33.6538 5.27543 33.4396 5.50077V2.65113H32.0573V10.4779H33.4396V7.48629C33.4396 6.69314 33.9477 6.14664 34.7897 6.14664C35.5773 6.14664 36.0095 6.62926 36.0095 7.48629V10.4779H37.3918V7.23965C37.3918 5.71724 36.431 4.8061 35.113 4.8061H35.1103ZM29.1534 6.13688C29.7365 6.13688 30.2115 6.43675 30.5821 6.85461L31.5394 5.91064C31.2548 5.56101 30.8943 5.27998 30.4847 5.08867C30.0752 4.89737 29.6273 4.80076 29.1748 4.8061C27.5032 4.8061 26.1843 6.07123 26.1843 7.71873C26.1843 9.36623 27.5014 10.6358 29.1748 10.6358C29.6273 10.6409 30.0751 10.5442 30.4846 10.3529C30.8941 10.1617 31.2547 9.88073 31.5394 9.53125L30.5785 8.59083C30.2214 8.99894 29.7365 9.30945 29.1427 9.30945C28.2568 9.30945 27.5764 8.62366 27.5764 7.72228C27.5764 6.8209 28.2568 6.13599 29.1534 6.13599V6.13688ZM19.0147 3.2828H17.6324V4.97733H16.8877V6.19987H17.6324V10.4779H19.0147V6.19987H19.7701V4.97733H19.0147V3.2828ZM15.592 2.50031C15.4127 2.50345 15.2382 2.55908 15.0906 2.66023C14.9429 2.76139 14.8285 2.90357 14.7618 3.06898C14.6951 3.23439 14.6789 3.41568 14.7154 3.59016C14.7519 3.76464 14.8393 3.92455 14.9668 4.04989C15.0943 4.17522 15.2562 4.26041 15.4322 4.29478C15.6082 4.32916 15.7905 4.31119 15.9563 4.24314C16.122 4.17508 16.2639 4.05996 16.3641 3.91218C16.4644 3.7644 16.5185 3.59053 16.5198 3.41233C16.522 3.29117 16.4994 3.17081 16.4535 3.05856C16.4075 2.94631 16.3391 2.84451 16.2523 2.75932C16.1656 2.67412 16.0623 2.60732 15.9488 2.56295C15.8353 2.51858 15.7139 2.49757 15.592 2.50119" fill="black"/>
<path d="M51.2479 10.462C51.0337 10.4652 50.8199 10.4408 50.6121 10.3892L50.4112 10.3227V9.25804L50.5897 9.31394C50.7472 9.36311 50.9114 9.38766 51.0764 9.38668C51.2061 9.38927 51.3354 9.37313 51.4604 9.33878C51.4935 9.25416 51.5061 9.16297 51.497 9.07262V8.02131L50.4192 8.40812V7.25478L51.497 6.86797V5.12465H50.3228V4.03962H51.4952V2.44269H52.5668V4.03962H53.3186V5.12465H52.5668V6.48736L53.3186 6.22121V7.37455L52.5668 7.6407V9.07351C52.5668 9.40531 52.5194 9.88262 52.1203 10.1993C51.869 10.3849 51.5605 10.4777 51.2479 10.462V10.462Z" fill="black"/>
<path d="M48.845 5.31788H41.2682V2.44073H48.845V5.31788ZM46.6322 4.25858H47.7734V3.49737H46.6322V4.25858ZM44.4828 4.25858H45.5687V3.49737H44.4828V4.25858ZM42.3326 4.25858H43.4184V3.49737H42.3326V4.25858Z" fill="black"/>
<path d="M53.8304 10.5578L52.899 9.71406L53.1089 9.63865C53.9286 9.34233 54.6769 8.95551 55.1475 8.58822C54.0492 7.38076 53.7188 6.17774 53.7018 6.12362C53.6679 6.03061 53.6401 5.93547 53.6188 5.83883C53.5831 5.68357 53.5652 5.56824 53.5643 5.56292L53.5411 5.40943H55.4261V4.64557H53.5706V3.56054H55.4261V2.44269H56.4977V3.56054H58.5935V4.64557H56.4941V5.405H58.3997L58.3693 5.56292C58.3693 5.56292 58.347 5.68535 58.3095 5.84504C58.2874 5.9411 58.2599 6.03587 58.2273 6.12894C58.2166 6.17064 57.8898 7.371 56.7807 8.58733C57.2504 8.9493 58.0032 9.33523 58.8346 9.6351L59.0435 9.71139L58.1157 10.5524L58.0362 10.5196C57.1486 10.1541 56.5227 9.80011 55.9664 9.34765C55.339 9.82958 54.6479 10.2236 53.9126 10.5187L53.8304 10.5578ZM55.035 6.50333C55.2764 6.99457 55.5876 7.44873 55.9592 7.85185C56.3306 7.44575 56.6434 6.99043 56.8888 6.4989L55.035 6.50333Z" fill="black"/>
<path d="M42.1709 10.4691L41.0762 9.50474L41.3905 9.48256C42.6013 9.39384 43.4202 9.22882 44.2221 8.89613C43.8945 8.66062 43.5528 8.44523 43.1987 8.25114L43.0103 8.15621L43.1782 8.02846C43.4001 7.85904 43.6124 7.67748 43.814 7.48461L43.8845 7.41719L43.9738 7.46598C44.4325 7.72913 44.871 8.02567 45.2856 8.35317C45.8935 7.98162 46.4583 7.54455 46.9697 7.04989H43.5041C43.0842 7.45097 42.6128 7.79522 42.1022 8.07371L42.02 8.11895L41.1655 7.35863L41.3441 7.26992C42.1374 6.89046 42.8264 6.3258 43.3523 5.62419L43.3925 5.57007H44.6427L44.5284 5.76702C44.4855 5.84066 44.4391 5.91518 44.3899 5.99059H48.8905L48.5029 6.75535C48.4395 6.88133 46.8893 9.84364 42.2308 10.4558L42.1709 10.4691Z" fill="black"/>
<path d="M74.8158 12.1891H75.6445V12.3523H75.3159V13.3903H75.1435V12.3523H74.8158V12.1891Z" fill="black"/>
<path d="M76.4731 13.1331H76.3526L75.9981 12.5821V13.3903H75.8257V12.1891H75.9463L76.4133 12.9219L76.8794 12.1891H77V13.3903H76.8276V12.5821L76.4731 13.1331Z" fill="black"/>
</g>
<defs>
<clipPath id="clip0_6758_65799">
<rect width="77" height="13.77" fill="white"/>
</clipPath>
</defs>
</svg>
